<svg class="svg-icon" style="width: 1em;height: 1em;vertical-align: middle;fill: currentColor;overflow: hidden;" viewBox="0 0 1024 1024" version="1.1" xmlns="http://www.w3.org/2000/svg"><path d="M361.358 809.808l369.23-647.227c10.946-19.189 4.265-43.618-14.924-54.565-19.188-10.947-43.618-4.265-54.564 14.923L291.87 770.167c-10.946 19.189-4.265 43.618 14.924 54.565 19.188 10.946 43.618 4.265 54.564-14.924z" fill="#333333" /><path d="M220.831 376H891.17c33.137 0 60-26.863 60-60s-26.863-60-60-60H220.83c-33.137 0-60 26.863-60 60s26.863 60 60 60zM220.831 634H891.17c33.137 0 60-26.863 60-60s-26.863-60-60-60H220.83c-33.137 0-60 26.863-60 60s26.863 60 60 60z" fill="#333333" /></svg>